<?xml version="1.0" encoding="UTF-8"?>
<svg width="19px" height="21px" viewBox="0 0 21 24" version="1.1" xmlns="http://www.w3.org/2000/svg" xmlns:xlink="http://www.w3.org/1999/xlink">
    <title>5B772997-E732-4C3F-8D04-C99A7B1B17CC</title>
    <g id="Pages" stroke="none" stroke-width="1" fill="none" fill-rule="evenodd">
        <g id="01.1.Home-M" transform="translate(-285.000000, -53.000000)" fill="#fff" fill-rule="nonzero" stroke="#fff" stroke-width="0.535">
            <g id="Header-M" transform="translate(0.000000, -0.500000)">
                <g id="icons" transform="translate(15.000000, 54.500000)">
                    <g id="icons8-shopping_bag" transform="translate(270.000000, 0.000000)">
                        <path d="M10.272,0 C7.92134354,0 5.992,1.92934354 5.992,4.28 L5.992,5.136 L1.7655,5.136 L1.712,5.9385 L0.856,21.3465 L0.8025,22.256 L19.7415,22.256 L19.688,21.3465 L18.832,5.9385 L18.7785,5.136 L14.552,5.136 L14.552,4.28 C14.552,1.92934354 12.6226565,0 10.272,0 Z M10.272,1.712 C11.68975,1.712 12.84,2.86225 12.84,4.28 L12.84,5.136 L7.704,5.136 L7.704,4.28 C7.704,2.86225 8.85425,1.712 10.272,1.712 Z M3.3705,6.848 L5.992,6.848 L5.992,9.416 L7.704,9.416 L7.704,6.848 L12.84,6.848 L12.84,9.416 L14.552,9.416 L14.552,6.848 L17.1735,6.848 L17.9225,20.544 L2.6215,20.544 L3.3705,6.848 Z" id="Shape"></path>
                    </g>
                </g>
            </g>
        </g>
    </g>
</svg>