<?xml version="1.0" encoding="UTF-8"?>
<svg width="22px" height="22px" viewBox="0 0 22 22" version="1.1" xmlns="http://www.w3.org/2000/svg" xmlns:xlink="http://www.w3.org/1999/xlink">
    <title>02D015FC-BA6A-41CB-B19D-5EAA0F373EF6</title>
    <g id="Pages" stroke="none" stroke-width="1" fill="none" fill-rule="evenodd">
        <g id="01.1.Home-D" transform="translate(-1161.000000, -77.000000)" fill="#000000" fill-rule="nonzero">
            <g id="Group-3" transform="translate(165.000000, 70.000000)">
                <g id="icons8-search" transform="translate(996.000000, 7.000000)">
                    <path d="M7.7,0 C3.46043654,0 0,3.46043654 0,7.7 C0,11.9395639 3.46043654,15.4 7.7,15.4 C9.6227978,15.4 11.3795099,14.6828264 12.7316409,13.509375 L13.2,13.9777341 L13.2,15.4 L19.8,22 L22,19.8 L15.4,13.2 L13.9777341,13.2 L13.509375,12.7316409 C14.6828264,11.3795099 15.4,9.6227978 15.4,7.7 C15.4,3.46043654 11.9395639,0 7.7,0 Z M7.7,2.2 C10.7505948,2.2 13.2,4.64940476 13.2,7.7 C13.2,10.7505948 10.7505948,13.2 7.7,13.2 C4.64940476,13.2 2.2,10.7505948 2.2,7.7 C2.2,4.64940476 4.64940476,2.2 7.7,2.2 Z" id="Shape"></path>
                </g>
            </g>
        </g>
    </g>
</svg>